<svg width="10" height="13" viewBox="0 0 10 13" fill="none" xmlns="http://www.w3.org/2000/svg">
<path d="M8.44841 5.96682C8.29507 5.76682 8.1084 5.59348 7.93506 5.42014C7.48838 5.02013 6.9817 4.73345 6.55502 4.31344C5.56166 3.34008 5.34166 1.73337 5.97501 0.5C5.34166 0.653338 4.78831 1.00001 4.31496 1.38003C2.58824 2.76673 1.90823 5.21347 2.72158 7.31353C2.74825 7.3802 2.77492 7.44686 2.77492 7.53353C2.77492 7.6802 2.67491 7.81354 2.54158 7.86688C2.38824 7.93355 2.22823 7.89354 2.10156 7.78687C2.06156 7.75354 2.0349 7.72021 2.00823 7.67354C1.25487 6.72018 1.13487 5.35347 1.64155 4.26011C0.528186 5.1668 -0.0784977 6.70018 0.00817139 8.14688C0.0481725 8.48023 0.0881736 8.81357 0.20151 9.14691C0.294846 9.54692 0.474851 9.94694 0.674857 10.3003C1.39488 11.4536 2.64158 12.2803 3.98162 12.447C5.40833 12.627 6.93504 12.367 8.0284 11.3803C9.24844 10.2736 9.67511 8.50023 9.04843 6.98018L8.96176 6.80685C8.82176 6.50017 8.44841 5.96682 8.44841 5.96682ZM6.34168 10.1669C6.15501 10.3269 5.84834 10.5003 5.60833 10.567C4.86164 10.8336 4.11495 10.4603 3.67494 10.0203C4.4683 9.8336 4.94164 9.24691 5.08165 8.65357C5.19499 8.12022 4.98165 7.6802 4.89498 7.16686C4.81497 6.67351 4.82831 6.2535 5.00831 5.79348C5.13498 6.04682 5.26832 6.30017 5.42833 6.50017C5.94167 7.16686 6.74836 7.4602 6.9217 8.36689C6.94837 8.46023 6.9617 8.55356 6.9617 8.65357C6.9817 9.20025 6.7417 9.80026 6.34168 10.1669Z" fill="white"/>
</svg>
