<svg width="16" height="16" viewBox="0 0 16 16" fill="none" xmlns="http://www.w3.org/2000/svg">
<g clip-path="url(#clip0_395_102)">
<path d="M7.60776 13.1085C7.862 12.955 8.18031 12.955 8.43454 13.1085L11.6022 15.0203C12.208 15.386 12.9554 14.8428 12.7946 14.1536L11.954 10.5502C11.8865 10.261 11.9848 9.95827 12.2093 9.76383L15.0118 7.33596C15.5463 6.87294 15.2613 5.99501 14.5568 5.93426L10.8671 5.61609C10.572 5.59065 10.3151 5.40426 10.1994 5.13163L8.75756 1.73487C8.4817 1.08498 7.56061 1.08499 7.28475 1.73488L5.84292 5.13163C5.7272 5.40426 5.47032 5.59065 5.17524 5.61609L1.48316 5.93446C0.778977 5.99519 0.49373 6.87242 1.02752 7.33569L3.82582 9.76431C4.04961 9.95853 4.14771 10.2605 4.08078 10.5492L3.24437 14.1565C3.08465 14.8454 3.83168 15.3875 4.43709 15.0221L7.60776 13.1085Z" fill="#bdbdbd"/>
</g>
<defs>
<clipPath id="clip0_395_102">
<rect width="16" height="16" fill="white"/>
</clipPath>
</defs>
</svg>
