<svg width="20" height="20" viewBox="0 0 20 20" fill="none" xmlns="http://www.w3.org/2000/svg">
<path d="M9.4831 14.7034C9.80089 14.5116 10.1988 14.5116 10.5166 14.7034L13.1208 16.2752C13.8782 16.7323 14.8124 16.0533 14.6114 15.1919L13.9203 12.2293C13.836 11.8678 13.9588 11.4893 14.2394 11.2463L16.5452 9.24874C17.2133 8.66996 16.857 7.57255 15.9764 7.49661L12.941 7.23486C12.5721 7.20306 12.2511 6.97008 12.1064 6.62929L10.9203 3.8351C10.5755 3.02273 9.42416 3.02274 9.07933 3.8351L7.89328 6.62929C7.74862 6.97008 7.42753 7.20306 7.05868 7.23486L4.02033 7.49686C3.14011 7.57277 2.78354 8.6693 3.45079 9.2484L5.75349 11.2469C6.03322 11.4897 6.15585 11.8672 6.07219 12.228L5.38413 15.1955C5.18448 16.0566 6.11826 16.7343 6.87502 16.2775L9.4831 14.7034Z" fill="#787878"/>
</svg>
