<svg width="1920" height="120" viewBox="0 0 1920 120" fill="none" xmlns="http://www.w3.org/2000/svg">
<mask id="path-1-inside-1_122_1307" fill="white">
<path d="M0 0H1920V120H0V0Z"/>
</mask>
<path d="M0 0H1920V120H0V0Z" fill="white"/>
<path d="M1920 119H0V121H1920V119Z" fill="#E4E4E4" mask="url(#path-1-inside-1_122_1307)"/>
<path d="M995.485 55.5417C994.799 55.5417 994.222 55.3431 993.752 54.9458C993.319 54.5486 993.102 54.0431 993.102 53.4292V46.8208C993.102 45.4847 992.795 44.5278 992.181 43.95C991.604 43.3722 990.881 43.0833 990.015 43.0833C989.112 43.0833 988.354 43.3722 987.74 43.95C987.162 44.5278 986.801 45.1958 986.656 45.9542V53.2125C986.656 53.8264 986.422 54.35 985.952 54.7833C985.519 55.1806 984.977 55.3792 984.327 55.3792C983.641 55.3792 983.063 55.1806 982.594 54.7833C982.124 54.3861 981.89 53.8806 981.89 53.2667V41.1333C981.89 40.5556 982.106 40.0681 982.54 39.6708C983.009 39.2375 983.605 39.0208 984.327 39.0208C984.905 39.0208 985.392 39.1833 985.79 39.5083C986.187 39.7972 986.458 40.1764 986.602 40.6458C987.577 39.3819 989.058 38.75 991.044 38.75C993.066 38.75 994.709 39.3458 995.973 40.5375C997.237 41.7292 997.869 43.625 997.869 46.225V53.5375C997.869 54.1153 997.634 54.6028 997.165 55C996.731 55.3611 996.172 55.5417 995.485 55.5417Z" fill="#202020" fill-opacity="0.8"/>
<path d="M968.883 55.5417C966.464 55.5417 964.496 54.7833 962.979 53.2667C961.499 51.7139 960.758 49.6556 960.758 47.0917C960.758 44.5278 961.481 42.5056 962.925 41.025C964.406 39.5083 966.337 38.75 968.721 38.75C970.418 38.75 971.899 39.3458 973.162 40.5375C973.307 40.1042 973.578 39.7431 973.975 39.4542C974.372 39.1653 974.842 39.0208 975.383 39.0208C976.106 39.0208 976.683 39.2375 977.117 39.6708C977.586 40.0681 977.821 40.5556 977.821 41.1333V53.4292C977.821 54.0431 977.586 54.5486 977.117 54.9458C976.683 55.3431 976.106 55.5417 975.383 55.5417C974.192 55.5417 973.451 55.0181 973.162 53.9708C972.007 55.0181 970.581 55.5417 968.883 55.5417ZM969.262 51.1542C970.418 51.1542 971.339 50.775 972.025 50.0167C972.711 49.2222 973.054 48.2472 973.054 47.0917C973.054 45.9 972.711 44.9431 972.025 44.2208C971.339 43.4986 970.418 43.1375 969.262 43.1375C968.143 43.1375 967.222 43.4986 966.5 44.2208C965.814 44.9431 965.471 45.9 965.471 47.0917C965.471 48.2472 965.814 49.2222 966.5 50.0167C967.222 50.775 968.143 51.1542 969.262 51.1542Z" fill="#202020" fill-opacity="0.8"/>
<path d="M950.738 55.3792C950.052 55.3792 949.474 55.1806 949.004 54.7833C948.535 54.3861 948.3 53.8806 948.3 53.2667V41.1333C948.3 40.5556 948.517 40.0681 948.95 39.6708C949.42 39.2375 950.016 39.0208 950.738 39.0208C951.388 39.0208 951.911 39.2194 952.309 39.6167C952.742 39.9778 952.995 40.4292 953.067 40.9708C953.464 40.3569 954.006 39.8333 954.692 39.4C955.378 38.9667 956.1 38.75 956.859 38.75C957.328 38.75 957.779 38.8042 958.213 38.9125C958.718 39.0569 959.134 39.3458 959.459 39.7792C959.784 40.1764 959.946 40.6458 959.946 41.1875C959.946 41.9458 959.693 42.5778 959.188 43.0833C958.718 43.5528 958.159 43.7153 957.509 43.5708C957.039 43.4625 956.57 43.4083 956.1 43.4083C955.27 43.4083 954.584 43.6972 954.042 44.275C953.5 44.8528 953.175 46.0264 953.067 47.7958V53.2125C953.067 53.8264 952.832 54.35 952.363 54.7833C951.929 55.1806 951.388 55.3792 950.738 55.3792Z" fill="#202020" fill-opacity="0.8"/>
<path d="M936.521 55.5417C934.968 55.5417 933.542 55.1806 932.242 54.4583C930.942 53.7361 929.894 52.7431 929.1 51.4792C928.342 50.1792 927.962 48.7167 927.962 47.0917C927.962 45.4306 928.342 43.9861 929.1 42.7583C929.894 41.4944 930.942 40.5194 932.242 39.8333C933.542 39.1111 934.968 38.75 936.521 38.75C938.11 38.75 939.536 39.1111 940.8 39.8333C942.1 40.5194 943.129 41.4944 943.887 42.7583C944.646 43.9861 945.025 45.4306 945.025 47.0917C945.025 48.7167 944.646 50.1792 943.887 51.4792C943.129 52.7431 942.1 53.7361 940.8 54.4583C939.536 55.1806 938.11 55.5417 936.521 55.5417ZM936.521 51.1542C937.64 51.1542 938.543 50.775 939.229 50.0167C939.951 49.2222 940.312 48.2472 940.312 47.0917C940.312 45.9 939.951 44.9431 939.229 44.2208C938.543 43.4986 937.64 43.1375 936.521 43.1375C935.437 43.1375 934.517 43.4986 933.758 44.2208C933.036 44.9431 932.675 45.9 932.675 47.0917C932.675 48.2472 933.036 49.2222 933.758 50.0167C934.517 50.775 935.437 51.1542 936.521 51.1542Z" fill="#202020" fill-opacity="0.8"/>
<path d="M901.438 55.5417C900.751 55.5417 900.174 55.3431 899.704 54.9458C899.235 54.5486 899 54.0431 899 53.4292V41.1333C899 40.5556 899.217 40.0681 899.65 39.6708C900.119 39.2375 900.715 39.0208 901.438 39.0208C902.268 39.0208 902.9 39.3097 903.333 39.8875C903.514 40.1042 903.622 40.3208 903.658 40.5375C904.092 39.9958 904.669 39.5625 905.392 39.2375C906.114 38.9125 906.926 38.75 907.829 38.75C910.285 38.75 912.054 39.5625 913.138 41.1875C913.788 40.3931 914.582 39.7972 915.521 39.4C916.46 38.9667 917.435 38.75 918.446 38.75C920.468 38.75 922.057 39.3458 923.213 40.5375C924.404 41.7292 925 43.625 925 46.225V53.5375C925 54.1153 924.765 54.6028 924.296 55C923.863 55.3611 923.303 55.5417 922.617 55.5417C921.931 55.5417 921.353 55.3431 920.883 54.9458C920.45 54.5486 920.233 54.0431 920.233 53.4292V46.8208C920.233 45.4847 919.999 44.5278 919.529 43.95C919.06 43.3722 918.392 43.0833 917.525 43.0833C916.658 43.0833 915.954 43.3542 915.413 43.8958C914.907 44.4014 914.564 45.0153 914.383 45.7375V53.5375C914.383 54.1153 914.149 54.6028 913.679 55C913.246 55.3611 912.686 55.5417 912 55.5417C911.314 55.5417 910.736 55.3431 910.267 54.9458C909.833 54.5486 909.617 54.0431 909.617 53.4292V46.8208C909.617 45.4847 909.382 44.5278 908.913 43.95C908.443 43.3722 907.775 43.0833 906.908 43.0833C906.078 43.0833 905.392 43.3542 904.85 43.8958C904.308 44.4014 903.947 44.9972 903.767 45.6833V53.375C903.767 53.9889 903.532 54.5125 903.062 54.9458C902.629 55.3431 902.088 55.5417 901.438 55.5417Z" fill="#202020" fill-opacity="0.8"/>
<path d="M1017.69 79.3752C1017.01 79.3752 1016.43 79.1766 1015.96 78.7793C1015.53 78.3821 1015.31 77.8766 1015.31 77.2627V70.6543C1015.31 69.3182 1015 68.3613 1014.39 67.7835C1013.81 67.2057 1013.09 66.9168 1012.22 66.9168C1011.32 66.9168 1010.56 67.2057 1009.95 67.7835C1009.37 68.3613 1009.01 69.0293 1008.86 69.7877V77.046C1008.86 77.6599 1008.63 78.1835 1008.16 78.6168C1007.73 79.0141 1007.19 79.2127 1006.54 79.2127C1005.85 79.2127 1005.27 79.0141 1004.8 78.6168C1004.33 78.2196 1004.1 77.7141 1004.1 77.1002V64.9668C1004.1 64.3891 1004.31 63.9016 1004.75 63.5043C1005.22 63.071 1005.81 62.8543 1006.54 62.8543C1007.11 62.8543 1007.6 63.0168 1008 63.3418C1008.4 63.6307 1008.67 64.0099 1008.81 64.4793C1009.79 63.2154 1011.27 62.5835 1013.25 62.5835C1015.27 62.5835 1016.92 63.1793 1018.18 64.371C1019.45 65.5627 1020.08 67.4585 1020.08 70.0585V77.371C1020.08 77.9488 1019.84 78.4363 1019.37 78.8335C1018.94 79.1946 1018.38 79.3752 1017.69 79.3752Z" fill="#202020" fill-opacity="0.8"/>
<path d="M991.092 79.3752C988.672 79.3752 986.704 78.6168 985.188 77.1002C983.707 75.5474 982.967 73.4891 982.967 70.9252C982.967 68.3613 983.689 66.3391 985.133 64.8585C986.614 63.3418 988.546 62.5835 990.929 62.5835C992.627 62.5835 994.107 63.1793 995.371 64.371C995.515 63.9377 995.786 63.5766 996.183 63.2877C996.581 62.9988 997.05 62.8543 997.592 62.8543C998.314 62.8543 998.892 63.071 999.325 63.5043C999.795 63.9016 1000.03 64.3891 1000.03 64.9668V77.2627C1000.03 77.8766 999.795 78.3821 999.325 78.7793C998.892 79.1766 998.314 79.3752 997.592 79.3752C996.4 79.3752 995.66 78.8516 995.371 77.8043C994.215 78.8516 992.789 79.3752 991.092 79.3752ZM991.471 74.9877C992.627 74.9877 993.547 74.6085 994.233 73.8502C994.92 73.0557 995.263 72.0807 995.263 70.9252C995.263 69.7335 994.92 68.7766 994.233 68.0543C993.547 67.3321 992.627 66.971 991.471 66.971C990.352 66.971 989.431 67.3321 988.708 68.0543C988.022 68.7766 987.679 69.7335 987.679 70.9252C987.679 72.0807 988.022 73.0557 988.708 73.8502C989.431 74.6085 990.352 74.9877 991.471 74.9877Z" fill="#202020" fill-opacity="0.8"/>
<path d="M972.946 79.2127C972.26 79.2127 971.682 79.0141 971.213 78.6168C970.744 78.2196 970.509 77.7141 970.509 77.1002V64.9668C970.509 64.3891 970.725 63.9016 971.159 63.5043C971.628 63.071 972.224 62.8543 972.946 62.8543C973.596 62.8543 974.12 63.0529 974.517 63.4502C974.95 63.8113 975.203 64.2627 975.275 64.8043C975.673 64.1904 976.214 63.6668 976.9 63.2335C977.587 62.8002 978.309 62.5835 979.067 62.5835C979.537 62.5835 979.988 62.6377 980.421 62.746C980.927 62.8904 981.342 63.1793 981.667 63.6127C981.992 64.0099 982.155 64.4793 982.155 65.021C982.155 65.7793 981.902 66.4113 981.396 66.9168C980.927 67.3863 980.367 67.5488 979.717 67.4043C979.248 67.296 978.778 67.2418 978.309 67.2418C977.478 67.2418 976.792 67.5307 976.25 68.1085C975.709 68.6863 975.384 69.8599 975.275 71.6293V77.046C975.275 77.6599 975.041 78.1835 974.571 78.6168C974.138 79.0141 973.596 79.2127 972.946 79.2127Z" fill="#202020" fill-opacity="0.8"/>
<path d="M958.729 79.3752C957.176 79.3752 955.75 79.0141 954.45 78.2918C953.15 77.5696 952.103 76.5766 951.308 75.3127C950.55 74.0127 950.171 72.5502 950.171 70.9252C950.171 69.2641 950.55 67.8196 951.308 66.5918C952.103 65.3279 953.15 64.3529 954.45 63.6668C955.75 62.9446 957.176 62.5835 958.729 62.5835C960.318 62.5835 961.745 62.9446 963.008 63.6668C964.308 64.3529 965.338 65.3279 966.096 66.5918C966.854 67.8196 967.233 69.2641 967.233 70.9252C967.233 72.5502 966.854 74.0127 966.096 75.3127C965.338 76.5766 964.308 77.5696 963.008 78.2918C961.745 79.0141 960.318 79.3752 958.729 79.3752ZM958.729 74.9877C959.849 74.9877 960.751 74.6085 961.438 73.8502C962.16 73.0557 962.521 72.0807 962.521 70.9252C962.521 69.7335 962.16 68.7766 961.438 68.0543C960.751 67.3321 959.849 66.971 958.729 66.971C957.646 66.971 956.725 67.3321 955.967 68.0543C955.245 68.7766 954.883 69.7335 954.883 70.9252C954.883 72.0807 955.245 73.0557 955.967 73.8502C956.725 74.6085 957.646 74.9877 958.729 74.9877Z" fill="#202020" fill-opacity="0.8"/>
<path d="M923.646 79.3752C922.96 79.3752 922.382 79.1766 921.913 78.7793C921.443 78.3821 921.208 77.8766 921.208 77.2627V64.9668C921.208 64.3891 921.425 63.9016 921.858 63.5043C922.328 63.071 922.924 62.8543 923.646 62.8543C924.477 62.8543 925.108 63.1432 925.542 63.721C925.722 63.9377 925.831 64.1543 925.867 64.371C926.3 63.8293 926.878 63.396 927.6 63.071C928.322 62.746 929.135 62.5835 930.038 62.5835C932.493 62.5835 934.263 63.396 935.346 65.021C935.996 64.2266 936.79 63.6307 937.729 63.2335C938.668 62.8002 939.643 62.5835 940.654 62.5835C942.677 62.5835 944.265 63.1793 945.421 64.371C946.613 65.5627 947.208 67.4585 947.208 70.0585V77.371C947.208 77.9488 946.974 78.4363 946.504 78.8335C946.071 79.1946 945.511 79.3752 944.825 79.3752C944.139 79.3752 943.561 79.1766 943.092 78.7793C942.658 78.3821 942.442 77.8766 942.442 77.2627V70.6543C942.442 69.3182 942.207 68.3613 941.738 67.7835C941.268 67.2057 940.6 66.9168 939.733 66.9168C938.867 66.9168 938.163 67.1877 937.621 67.7293C937.115 68.2349 936.772 68.8488 936.592 69.571V77.371C936.592 77.9488 936.357 78.4363 935.888 78.8335C935.454 79.1946 934.895 79.3752 934.208 79.3752C933.522 79.3752 932.945 79.1766 932.475 78.7793C932.042 78.3821 931.825 77.8766 931.825 77.2627V70.6543C931.825 69.3182 931.59 68.3613 931.121 67.7835C930.652 67.2057 929.983 66.9168 929.117 66.9168C928.286 66.9168 927.6 67.1877 927.058 67.7293C926.517 68.2349 926.156 68.8307 925.975 69.5168V77.2085C925.975 77.8224 925.74 78.346 925.271 78.7793C924.838 79.1766 924.296 79.3752 923.646 79.3752Z" fill="#202020" fill-opacity="0.8"/>
</svg>
