<svg width="19" height="19" viewBox="0 0 19 19" fill="none" xmlns="http://www.w3.org/2000/svg">
<path fill-rule="evenodd" clip-rule="evenodd" d="M13.6225 12.9942C13.4729 12.8446 13.4622 12.6067 13.5879 12.4367C15.7508 9.51099 15.507 5.36508 12.8564 2.71452C9.93735 -0.204573 5.20457 -0.204572 2.28548 2.71452C-0.633609 5.63361 -0.633609 10.3664 2.28548 13.2855C4.93612 15.9361 9.0822 16.1799 12.0079 14.0168C12.1779 13.8911 12.4159 13.9018 12.5654 14.0513C12.726 14.212 12.9865 14.212 13.1472 14.0513L13.6225 13.576C13.7831 13.4154 13.7831 13.1549 13.6225 12.9942ZM11.2707 11.6998C13.3141 9.65647 13.3141 6.34353 11.2707 4.30016C9.22732 2.2568 5.91438 2.2568 3.87101 4.30016C1.82765 6.34353 1.82765 9.65647 3.87101 11.6998C5.91438 13.7432 9.22732 13.7432 11.2707 11.6998ZM13.0344 15.5786C12.6438 15.1881 12.6438 14.555 13.0344 14.1644L13.7343 13.4645C14.1249 13.0739 14.758 13.0739 15.1486 13.4645L18.1413 16.4572C18.7251 17.041 18.7251 17.9876 18.1413 18.5714C17.5575 19.1552 16.6109 19.1552 16.0271 18.5714L13.0344 15.5786Z" fill="#00B368"/>
</svg>
