<svg width="1920" height="120" viewBox="0 0 1920 120" fill="none" xmlns="http://www.w3.org/2000/svg">
<mask id="path-1-inside-1_102_10" fill="white">
<path d="M0 0H1920V120H0V0Z"/>
</mask>
<path d="M0 0H1920V120H0V0Z" fill="white"/>
<path d="M1920 119H0V121H1920V119Z" fill="#E4E4E4" mask="url(#path-1-inside-1_102_10)"/>
<path d="M995.485 55.5417C994.799 55.5417 994.222 55.3431 993.752 54.9458C993.319 54.5486 993.102 54.0431 993.102 53.4292V46.8208C993.102 45.4847 992.795 44.5278 992.181 43.95C991.604 43.3722 990.881 43.0833 990.015 43.0833C989.112 43.0833 988.354 43.3722 987.74 43.95C987.162 44.5278 986.801 45.1958 986.656 45.9542V53.2125C986.656 53.8264 986.422 54.35 985.952 54.7833C985.519 55.1806 984.977 55.3792 984.327 55.3792C983.641 55.3792 983.063 55.1806 982.594 54.7833C982.124 54.3861 981.89 53.8806 981.89 53.2667V41.1333C981.89 40.5556 982.106 40.0681 982.54 39.6708C983.009 39.2375 983.605 39.0208 984.327 39.0208C984.905 39.0208 985.392 39.1833 985.79 39.5083C986.187 39.7972 986.458 40.1764 986.602 40.6458C987.577 39.3819 989.058 38.75 991.044 38.75C993.066 38.75 994.709 39.3458 995.973 40.5375C997.237 41.7292 997.869 43.625 997.869 46.225V53.5375C997.869 54.1153 997.634 54.6028 997.165 55C996.731 55.3611 996.172 55.5417 995.485 55.5417Z" fill="#202020" fill-opacity="0.8"/>
<path d="M968.883 55.5417C966.464 55.5417 964.496 54.7833 962.979 53.2667C961.499 51.7139 960.758 49.6556 960.758 47.0917C960.758 44.5278 961.481 42.5056 962.925 41.025C964.406 39.5083 966.337 38.75 968.721 38.75C970.418 38.75 971.899 39.3458 973.162 40.5375C973.307 40.1042 973.578 39.7431 973.975 39.4542C974.372 39.1653 974.842 39.0208 975.383 39.0208C976.106 39.0208 976.683 39.2375 977.117 39.6708C977.586 40.0681 977.821 40.5556 977.821 41.1333V53.4292C977.821 54.0431 977.586 54.5486 977.117 54.9458C976.683 55.3431 976.106 55.5417 975.383 55.5417C974.192 55.5417 973.451 55.0181 973.162 53.9708C972.007 55.0181 970.581 55.5417 968.883 55.5417ZM969.262 51.1542C970.418 51.1542 971.339 50.775 972.025 50.0167C972.711 49.2222 973.054 48.2472 973.054 47.0917C973.054 45.9 972.711 44.9431 972.025 44.2208C971.339 43.4986 970.418 43.1375 969.262 43.1375C968.143 43.1375 967.222 43.4986 966.5 44.2208C965.814 44.9431 965.471 45.9 965.471 47.0917C965.471 48.2472 965.814 49.2222 966.5 50.0167C967.222 50.775 968.143 51.1542 969.262 51.1542Z" fill="#202020" fill-opacity="0.8"/>
<path d="M950.738 55.3792C950.052 55.3792 949.474 55.1806 949.004 54.7833C948.535 54.3861 948.3 53.8806 948.3 53.2667V41.1333C948.3 40.5556 948.517 40.0681 948.95 39.6708C949.42 39.2375 950.016 39.0208 950.738 39.0208C951.388 39.0208 951.911 39.2194 952.309 39.6167C952.742 39.9778 952.995 40.4292 953.067 40.9708C953.464 40.3569 954.006 39.8333 954.692 39.4C955.378 38.9667 956.1 38.75 956.859 38.75C957.328 38.75 957.779 38.8042 958.213 38.9125C958.718 39.0569 959.134 39.3458 959.459 39.7792C959.784 40.1764 959.946 40.6458 959.946 41.1875C959.946 41.9458 959.693 42.5778 959.188 43.0833C958.718 43.5528 958.159 43.7153 957.509 43.5708C957.039 43.4625 956.57 43.4083 956.1 43.4083C955.27 43.4083 954.584 43.6972 954.042 44.275C953.5 44.8528 953.175 46.0264 953.067 47.7958V53.2125C953.067 53.8264 952.832 54.35 952.363 54.7833C951.929 55.1806 951.388 55.3792 950.738 55.3792Z" fill="#202020" fill-opacity="0.8"/>
<path d="M936.521 55.5417C934.968 55.5417 933.542 55.1806 932.242 54.4583C930.942 53.7361 929.894 52.7431 929.1 51.4792C928.342 50.1792 927.962 48.7167 927.962 47.0917C927.962 45.4306 928.342 43.9861 929.1 42.7583C929.894 41.4944 930.942 40.5194 932.242 39.8333C933.542 39.1111 934.968 38.75 936.521 38.75C938.11 38.75 939.536 39.1111 940.8 39.8333C942.1 40.5194 943.129 41.4944 943.887 42.7583C944.646 43.9861 945.025 45.4306 945.025 47.0917C945.025 48.7167 944.646 50.1792 943.887 51.4792C943.129 52.7431 942.1 53.7361 940.8 54.4583C939.536 55.1806 938.11 55.5417 936.521 55.5417ZM936.521 51.1542C937.64 51.1542 938.543 50.775 939.229 50.0167C939.951 49.2222 940.312 48.2472 940.312 47.0917C940.312 45.9 939.951 44.9431 939.229 44.2208C938.543 43.4986 937.64 43.1375 936.521 43.1375C935.437 43.1375 934.517 43.4986 933.758 44.2208C933.036 44.9431 932.675 45.9 932.675 47.0917C932.675 48.2472 933.036 49.2222 933.758 50.0167C934.517 50.775 935.437 51.1542 936.521 51.1542Z" fill="#202020" fill-opacity="0.8"/>
<path d="M901.438 55.5417C900.751 55.5417 900.174 55.3431 899.704 54.9458C899.235 54.5486 899 54.0431 899 53.4292V41.1333C899 40.5556 899.217 40.0681 899.65 39.6708C900.119 39.2375 900.715 39.0208 901.438 39.0208C902.268 39.0208 902.9 39.3097 903.333 39.8875C903.514 40.1042 903.622 40.3208 903.658 40.5375C904.092 39.9958 904.669 39.5625 905.392 39.2375C906.114 38.9125 906.926 38.75 907.829 38.75C910.285 38.75 912.054 39.5625 913.138 41.1875C913.788 40.3931 914.582 39.7972 915.521 39.4C916.46 38.9667 917.435 38.75 918.446 38.75C920.468 38.75 922.057 39.3458 923.213 40.5375C924.404 41.7292 925 43.625 925 46.225V53.5375C925 54.1153 924.765 54.6028 924.296 55C923.863 55.3611 923.303 55.5417 922.617 55.5417C921.931 55.5417 921.353 55.3431 920.883 54.9458C920.45 54.5486 920.233 54.0431 920.233 53.4292V46.8208C920.233 45.4847 919.999 44.5278 919.529 43.95C919.06 43.3722 918.392 43.0833 917.525 43.0833C916.658 43.0833 915.954 43.3542 915.413 43.8958C914.907 44.4014 914.564 45.0153 914.383 45.7375V53.5375C914.383 54.1153 914.149 54.6028 913.679 55C913.246 55.3611 912.686 55.5417 912 55.5417C911.314 55.5417 910.736 55.3431 910.267 54.9458C909.833 54.5486 909.617 54.0431 909.617 53.4292V46.8208C909.617 45.4847 909.382 44.5278 908.913 43.95C908.443 43.3722 907.775 43.0833 906.908 43.0833C906.078 43.0833 905.392 43.3542 904.85 43.8958C904.308 44.4014 903.947 44.9972 903.767 45.6833V53.375C903.767 53.9889 903.532 54.5125 903.062 54.9458C902.629 55.3431 902.088 55.5417 901.438 55.5417Z" fill="#202020" fill-opacity="0.8"/>
<path d="M1017.69 79.375C1017.01 79.375 1016.43 79.1764 1015.96 78.7792C1015.53 78.3819 1015.31 77.8764 1015.31 77.2625V70.6541C1015.31 69.318 1015 68.3611 1014.39 67.7833C1013.81 67.2055 1013.09 66.9166 1012.22 66.9166C1011.32 66.9166 1010.56 67.2055 1009.95 67.7833C1009.37 68.3611 1009.01 69.0291 1008.86 69.7875V77.0458C1008.86 77.6597 1008.63 78.1833 1008.16 78.6166C1007.73 79.0139 1007.19 79.2125 1006.54 79.2125C1005.85 79.2125 1005.27 79.0139 1004.8 78.6166C1004.33 78.2194 1004.1 77.7139 1004.1 77.1V64.9666C1004.1 64.3889 1004.31 63.9014 1004.75 63.5041C1005.22 63.0708 1005.81 62.8541 1006.54 62.8541C1007.11 62.8541 1007.6 63.0166 1008 63.3416C1008.4 63.6305 1008.67 64.0097 1008.81 64.4791C1009.79 63.2153 1011.27 62.5833 1013.25 62.5833C1015.27 62.5833 1016.92 63.1791 1018.18 64.3708C1019.45 65.5625 1020.08 67.4583 1020.08 70.0583V77.3708C1020.08 77.9486 1019.84 78.4361 1019.37 78.8333C1018.94 79.1944 1018.38 79.375 1017.69 79.375Z" fill="#202020" fill-opacity="0.8"/>
<path d="M991.092 79.375C988.672 79.375 986.704 78.6166 985.188 77.1C983.707 75.5472 982.967 73.4889 982.967 70.925C982.967 68.3611 983.689 66.3389 985.133 64.8583C986.614 63.3416 988.546 62.5833 990.929 62.5833C992.627 62.5833 994.107 63.1791 995.371 64.3708C995.515 63.9375 995.786 63.5764 996.183 63.2875C996.581 62.9986 997.05 62.8541 997.592 62.8541C998.314 62.8541 998.892 63.0708 999.325 63.5041C999.795 63.9014 1000.03 64.3889 1000.03 64.9666V77.2625C1000.03 77.8764 999.795 78.3819 999.325 78.7792C998.892 79.1764 998.314 79.375 997.592 79.375C996.4 79.375 995.66 78.8514 995.371 77.8041C994.215 78.8514 992.789 79.375 991.092 79.375ZM991.471 74.9875C992.627 74.9875 993.547 74.6083 994.233 73.85C994.92 73.0555 995.263 72.0805 995.263 70.925C995.263 69.7333 994.92 68.7764 994.233 68.0541C993.547 67.3319 992.627 66.9708 991.471 66.9708C990.352 66.9708 989.431 67.3319 988.708 68.0541C988.022 68.7764 987.679 69.7333 987.679 70.925C987.679 72.0805 988.022 73.0555 988.708 73.85C989.431 74.6083 990.352 74.9875 991.471 74.9875Z" fill="#202020" fill-opacity="0.8"/>
<path d="M972.946 79.2125C972.26 79.2125 971.682 79.0139 971.213 78.6166C970.744 78.2194 970.509 77.7139 970.509 77.1V64.9666C970.509 64.3889 970.725 63.9014 971.159 63.5041C971.628 63.0708 972.224 62.8541 972.946 62.8541C973.596 62.8541 974.12 63.0528 974.517 63.45C974.95 63.8111 975.203 64.2625 975.275 64.8041C975.673 64.1903 976.214 63.6666 976.9 63.2333C977.587 62.8 978.309 62.5833 979.067 62.5833C979.537 62.5833 979.988 62.6375 980.421 62.7458C980.927 62.8903 981.342 63.1791 981.667 63.6125C981.992 64.0097 982.155 64.4791 982.155 65.0208C982.155 65.7791 981.902 66.4111 981.396 66.9166C980.927 67.3861 980.367 67.5486 979.717 67.4041C979.248 67.2958 978.778 67.2416 978.309 67.2416C977.478 67.2416 976.792 67.5305 976.25 68.1083C975.709 68.6861 975.384 69.8597 975.275 71.6291V77.0458C975.275 77.6597 975.041 78.1833 974.571 78.6166C974.138 79.0139 973.596 79.2125 972.946 79.2125Z" fill="#202020" fill-opacity="0.8"/>
<path d="M958.729 79.375C957.176 79.375 955.75 79.0139 954.45 78.2916C953.15 77.5694 952.103 76.5764 951.308 75.3125C950.55 74.0125 950.171 72.55 950.171 70.925C950.171 69.2639 950.55 67.8194 951.308 66.5916C952.103 65.3278 953.15 64.3528 954.45 63.6666C955.75 62.9444 957.176 62.5833 958.729 62.5833C960.318 62.5833 961.745 62.9444 963.008 63.6666C964.308 64.3528 965.338 65.3278 966.096 66.5916C966.854 67.8194 967.233 69.2639 967.233 70.925C967.233 72.55 966.854 74.0125 966.096 75.3125C965.338 76.5764 964.308 77.5694 963.008 78.2916C961.745 79.0139 960.318 79.375 958.729 79.375ZM958.729 74.9875C959.849 74.9875 960.751 74.6083 961.438 73.85C962.16 73.0555 962.521 72.0805 962.521 70.925C962.521 69.7333 962.16 68.7764 961.438 68.0541C960.751 67.3319 959.849 66.9708 958.729 66.9708C957.646 66.9708 956.725 67.3319 955.967 68.0541C955.245 68.7764 954.883 69.7333 954.883 70.925C954.883 72.0805 955.245 73.0555 955.967 73.85C956.725 74.6083 957.646 74.9875 958.729 74.9875Z" fill="#202020" fill-opacity="0.8"/>
<path d="M923.646 79.375C922.96 79.375 922.382 79.1764 921.913 78.7792C921.443 78.3819 921.208 77.8764 921.208 77.2625V64.9666C921.208 64.3889 921.425 63.9014 921.858 63.5041C922.328 63.0708 922.924 62.8541 923.646 62.8541C924.477 62.8541 925.108 63.143 925.542 63.7208C925.722 63.9375 925.831 64.1541 925.867 64.3708C926.3 63.8291 926.878 63.3958 927.6 63.0708C928.322 62.7458 929.135 62.5833 930.038 62.5833C932.493 62.5833 934.263 63.3958 935.346 65.0208C935.996 64.2264 936.79 63.6305 937.729 63.2333C938.668 62.8 939.643 62.5833 940.654 62.5833C942.677 62.5833 944.265 63.1791 945.421 64.3708C946.613 65.5625 947.208 67.4583 947.208 70.0583V77.3708C947.208 77.9486 946.974 78.4361 946.504 78.8333C946.071 79.1944 945.511 79.375 944.825 79.375C944.139 79.375 943.561 79.1764 943.092 78.7792C942.658 78.3819 942.442 77.8764 942.442 77.2625V70.6541C942.442 69.318 942.207 68.3611 941.738 67.7833C941.268 67.2055 940.6 66.9166 939.733 66.9166C938.867 66.9166 938.163 67.1875 937.621 67.7291C937.115 68.2347 936.772 68.8486 936.592 69.5708V77.3708C936.592 77.9486 936.357 78.4361 935.888 78.8333C935.454 79.1944 934.895 79.375 934.208 79.375C933.522 79.375 932.945 79.1764 932.475 78.7792C932.042 78.3819 931.825 77.8764 931.825 77.2625V70.6541C931.825 69.318 931.59 68.3611 931.121 67.7833C930.652 67.2055 929.983 66.9166 929.117 66.9166C928.286 66.9166 927.6 67.1875 927.058 67.7291C926.517 68.2347 926.156 68.8305 925.975 69.5166V77.2083C925.975 77.8222 925.74 78.3458 925.271 78.7792C924.838 79.1764 924.296 79.375 923.646 79.375Z" fill="#202020" fill-opacity="0.8"/>
</svg>
