<svg width="48" height="48" viewBox="0 0 48 48" fill="none" xmlns="http://www.w3.org/2000/svg">
<g filter="url(#filter0_d_517_374)">
<rect x="4" y="4" width="40" height="40" rx="8.33333" fill="white"/>
<rect x="4.20833" y="4.20833" width="39.5833" height="39.5833" rx="8.125" stroke="#CDCDCD" stroke-width="0.416667"/>
<mask id="path-3-outside-1_517_374" maskUnits="userSpaceOnUse" x="13.6641" y="11.168" width="21" height="22" fill="black">
<rect fill="white" x="13.6641" y="11.168" width="21" height="22"/>
<path fill-rule="evenodd" clip-rule="evenodd" d="M24.2356 13.168C23.0522 13.168 22.0928 14.1274 22.0928 15.3108C22.0928 15.4954 21.971 15.657 21.7964 15.717C18.8516 16.7292 16.7354 19.5232 16.7354 22.8115V26.7658C16.7354 27.1483 16.5152 27.4879 16.252 27.7654C15.8876 28.1495 15.6641 28.6686 15.6641 29.2399C15.6641 30.4233 16.6234 31.3827 17.8069 31.3827H30.6641C31.8475 31.3827 32.8069 30.4233 32.8069 29.2399C32.8069 28.6685 32.5833 28.1494 32.2188 27.7652C31.9556 27.4877 31.7354 27.148 31.7354 26.7656V22.8115C31.7354 19.5235 29.6195 16.7296 26.675 15.7172C26.5003 15.6572 26.3785 15.4955 26.3785 15.3108C26.3785 14.1274 25.4191 13.168 24.2356 13.168Z"/>
</mask>
<path d="M32.2188 27.7652L31.0098 28.9124L32.2188 27.7652ZM21.7964 15.717L21.2547 14.1408L21.7964 15.717ZM23.7594 15.3108C23.7594 15.0478 23.9726 14.8346 24.2356 14.8346V11.5013C22.1317 11.5013 20.4261 13.2069 20.4261 15.3108H23.7594ZM21.2547 14.1408C17.6575 15.3772 15.0687 18.7899 15.0687 22.8115H18.402C18.402 20.2565 20.0456 18.0811 22.3381 17.2932L21.2547 14.1408ZM15.0687 22.8115V26.7658H18.402V22.8115H15.0687ZM15.0428 26.6184C14.3964 27.2998 13.9974 28.225 13.9974 29.2399H17.3307C17.3307 29.1122 17.3788 28.9993 17.4612 28.9124L15.0428 26.6184ZM13.9974 29.2399C13.9974 31.3438 15.703 33.0494 17.8069 33.0494V29.7161C17.5439 29.7161 17.3307 29.5029 17.3307 29.2399H13.9974ZM17.8069 33.0494H30.6641V29.7161H17.8069V33.0494ZM30.6641 33.0494C32.768 33.0494 34.4736 31.3438 34.4736 29.2399H31.1403C31.1403 29.5029 30.9271 29.7161 30.6641 29.7161V33.0494ZM34.4736 29.2399C34.4736 28.2249 34.0744 27.2995 33.4279 26.6181L31.0098 28.9124C31.0922 28.9992 31.1403 29.1121 31.1403 29.2399H34.4736ZM33.402 26.7656V22.8115H30.0687V26.7656H33.402ZM33.402 22.8115C33.402 18.7902 30.8136 15.3778 27.2169 14.1411L26.1331 17.2934C28.4253 18.0815 30.0687 20.2567 30.0687 22.8115H33.402ZM24.2356 14.8346C24.4986 14.8346 24.7118 15.0478 24.7118 15.3108H28.0452C28.0452 13.2069 26.3396 11.5013 24.2356 11.5013V14.8346ZM27.2169 14.1411C27.6762 14.299 28.0452 14.7435 28.0452 15.3108H24.7118C24.7118 16.2476 25.3245 17.0153 26.1331 17.2934L27.2169 14.1411ZM33.4279 26.6181C33.3985 26.5871 33.3783 26.5627 33.3653 26.5454C33.3522 26.5279 33.3501 26.5225 33.3538 26.5296C33.3615 26.5443 33.402 26.629 33.402 26.7656H30.0687C30.0687 27.7912 30.6464 28.5293 31.0098 28.9124L33.4279 26.6181ZM15.0687 26.7658C15.0687 26.6293 15.1092 26.5446 15.1169 26.5299C15.1206 26.5228 15.1185 26.5282 15.1054 26.5457C15.0924 26.563 15.0723 26.5873 15.0428 26.6184L17.4612 28.9124C17.8245 28.5294 18.402 27.7913 18.402 26.7658H15.0687ZM20.4261 15.3108C20.4261 14.7434 20.7952 14.2988 21.2547 14.1408L22.3381 17.2932C23.1468 17.0152 23.7594 16.2475 23.7594 15.3108H20.4261Z" fill="black" mask="url(#path-3-outside-1_517_374)"/>
<path fill-rule="evenodd" clip-rule="evenodd" d="M23.6796 31.3828C22.3987 31.3828 21.0186 32.0053 21.0186 33.2862C21.0186 35.0614 22.4576 36.5005 24.2328 36.5005C26.008 36.5005 27.4471 35.0614 27.4471 33.2862C27.4471 32.0053 26.067 31.3828 24.7861 31.3828H23.6796ZM25.7805 33.2862C25.7805 34.1409 25.0876 34.8338 24.2328 34.8338C23.3781 34.8338 22.6852 34.1409 22.6852 33.2862C22.6852 32.4315 23.3781 31.7386 24.2328 31.7386C25.0876 31.7386 25.7805 32.4315 25.7805 33.2862Z" fill="black"/>
</g>
<defs>
<filter id="filter0_d_517_374" x="0" y="0" width="48" height="48" filterUnits="userSpaceOnUse" color-interpolation-filters="sRGB">
<feFlood flood-opacity="0" result="BackgroundImageFix"/>
<feColorMatrix in="SourceAlpha" type="matrix" values="0 0 0 0 0 0 0 0 0 0 0 0 0 0 0 0 0 0 127 0" result="hardAlpha"/>
<feOffset/>
<feGaussianBlur stdDeviation="2"/>
<feComposite in2="hardAlpha" operator="out"/>
<feColorMatrix type="matrix" values="0 0 0 0 0 0 0 0 0 0 0 0 0 0 0 0 0 0 0.25 0"/>
<feBlend mode="normal" in2="BackgroundImageFix" result="effect1_dropShadow_517_374"/>
<feBlend mode="normal" in="SourceGraphic" in2="effect1_dropShadow_517_374" result="shape"/>
</filter>
</defs>
</svg>
