<svg width="16" height="13" viewBox="0 0 16 13" fill="none" xmlns="http://www.w3.org/2000/svg">
<path d="M13.8354 0.5C14.6679 0.5 15.3354 1.1675 15.3354 2V11C15.3354 11.8325 14.6679 12.5 13.8354 12.5H1.83545C1.00295 12.5 0.335449 11.8325 0.335449 11V2C0.335449 1.1675 1.00295 0.5 1.83545 0.5H13.8354ZM5.21045 8.75V4.25H4.27295V6.875L2.39795 4.25H1.46045V8.75H2.39795V6.125L4.31045 8.75H5.21045ZM8.96045 5.195V4.25H5.96045V8.75H8.96045V7.8125H7.08545V6.98H8.96045V6.035H7.08545V5.195H8.96045ZM14.2104 8V4.25H13.2729V7.625H12.4329V5H11.4954V7.625H10.6479V4.25H9.71045V8C9.71045 8.19891 9.78947 8.38968 9.93012 8.53033C10.0708 8.67098 10.2615 8.75 10.4604 8.75H13.4604C13.6594 8.75 13.8501 8.67098 13.9908 8.53033C14.1314 8.38968 14.2104 8.19891 14.2104 8Z" fill="white"/>
</svg>
